<svg width="129" height="60" viewBox="0 0 129 60" fill="none" xmlns="http://www.w3.org/2000/svg">
<g clip-path="url(#clip0_8783_1549)">
<path d="M22.6552 18.3313C26.098 18.3313 28.9883 20.6227 28.9883 24.8659C28.9883 25.163 28.9883 25.3751 28.9458 25.7995H18.6173C18.7448 27.9635 20.4875 29.3638 22.6552 29.3638C24.4829 29.3638 25.758 28.5152 26.4381 27.3695L28.6483 28.9395C27.4582 30.8065 25.418 31.9947 22.6552 31.9947C18.6598 31.9947 15.7695 29.1517 15.7695 25.163C15.7695 21.3016 18.6598 18.3313 22.6552 18.3313ZM18.7448 23.6778H26.0555C25.758 21.7683 24.2279 20.75 22.5277 20.75C20.8275 20.75 19.1699 21.7259 18.7448 23.6778ZM24.3129 12.0088H27.7982L23.8878 17.0159H21.6776L24.3129 12.0088Z" fill="#065C9E"/>
<path d="M62.2277 18.3311C64.1403 18.3311 65.713 19.307 66.4356 20.3678V18.5857H69.3259V31.7398H66.4356V29.9576C65.713 31.0185 64.0978 31.9944 62.2277 31.9944C58.6148 31.9944 55.8945 28.8968 55.8945 25.1627C55.8945 21.4287 58.6148 18.3311 62.2277 18.3311ZM62.7377 20.9619C60.4 20.9619 58.8273 22.7865 58.8273 25.1627C58.8273 27.539 60.4 29.3636 62.7377 29.3636C65.0754 29.3636 66.6481 27.539 66.6481 25.1627C66.6906 22.7865 65.0754 20.9619 62.7377 20.9619Z" fill="#065C9E"/>
<path d="M84.7969 18.5858H87.6872V20.9196C88.1972 19.4345 89.6423 18.4585 91.1725 18.4585C91.555 18.4585 91.8951 18.5009 92.3201 18.5434V21.5137C91.8101 21.3439 91.385 21.2591 90.875 21.2591C89.2173 21.2591 87.7297 22.6593 87.7297 25.2902V31.6975H84.8394V18.5858H84.7969Z" fill="#065C9E"/>
<path d="M108.768 18.3311C112.211 18.3311 115.101 20.6224 115.101 24.8657C115.101 25.1627 115.101 25.3749 115.059 25.7992H104.688C104.815 27.9633 106.558 29.3636 108.726 29.3636C110.553 29.3636 111.828 28.5149 112.508 27.3692L114.719 28.9393C113.528 30.8063 111.488 31.9944 108.726 31.9944C104.73 31.9944 101.84 29.1514 101.84 25.1627C101.882 21.3014 104.73 18.3311 108.768 18.3311ZM104.858 23.6776H112.168C111.871 21.7681 110.341 20.7497 108.64 20.7497C106.94 20.7497 105.24 21.7257 104.858 23.6776Z" fill="#065C9E"/>
<path d="M61.2505 60.0002C58.9128 60.0002 56.9151 59.0667 55.9375 57.1997L58.0627 55.6721C58.5728 56.8178 59.8904 57.4967 61.208 57.4967C62.2281 57.4967 63.1207 57.0299 63.1207 56.0964C63.1207 55.3326 62.6531 54.8659 61.0805 54.3991L59.9329 54.1021C57.6377 53.4656 56.4475 52.0229 56.49 50.071C56.5326 47.7372 58.5728 46.2944 61.208 46.2944C63.2057 46.2944 64.7359 47.1007 65.6709 48.5434L63.6733 50.071C63.0782 49.2647 62.2706 48.7131 61.1655 48.7131C60.3154 48.7131 59.3803 49.1799 59.3803 49.9437C59.3803 50.5801 59.6779 51.1318 60.953 51.5137L62.3131 51.8956C64.6508 52.5745 66.011 53.7202 66.011 55.8843C66.011 58.4302 63.9708 60.0002 61.2505 60.0002Z" fill="#065C9E"/>
<path d="M68.6875 46.5918H71.5778V53.9751C71.5778 56.0967 72.5129 57.3697 74.213 57.3697C76.0832 57.3697 77.4434 55.8845 77.4434 53.0415V46.5493H80.3336V59.7035H77.4434V57.9213C76.6783 59.2367 75.2756 59.9581 73.5755 59.9581C70.5577 59.9581 68.6875 57.794 68.6875 54.3994V46.5918Z" fill="#065C9E"/>
<path d="M96.274 60.0002C93.9362 60.0002 91.9385 59.0667 90.9609 57.1997L93.0861 55.6721C93.5962 56.8178 94.9138 57.4967 96.2315 57.4967C97.2516 57.4967 98.1441 57.0299 98.1441 56.0964C98.1441 55.3326 97.6766 54.8659 96.1039 54.3991L94.9563 54.1021C92.6611 53.4656 91.471 52.0229 91.5135 50.071C91.556 47.7372 93.5962 46.2944 96.2315 46.2944C98.2292 46.2944 99.7593 47.1007 100.694 48.5434L98.6967 50.071C98.1016 49.2647 97.2941 48.7131 96.189 48.7131C95.3389 48.7131 94.4038 49.1799 94.4038 49.9437C94.4038 50.5801 94.7013 51.1318 95.9764 51.5137L97.3366 51.8956C99.6743 52.5745 101.034 53.7202 101.034 55.8843C101.077 58.4302 98.9942 60.0002 96.274 60.0002Z" fill="#065C9E"/>
<path d="M108.641 60.0002C106.303 60.0002 104.306 59.0667 103.328 57.1997L105.453 55.6721C105.963 56.8178 107.281 57.4967 108.599 57.4967C109.619 57.4967 110.511 57.0299 110.511 56.0964C110.511 55.3326 110.044 54.8659 108.471 54.3991L107.324 54.1021C105.028 53.4656 103.838 52.0229 103.881 50.071C103.923 47.7372 105.963 46.2944 108.599 46.2944C110.596 46.2944 112.126 47.1007 113.062 48.5434L111.064 50.071C110.469 49.2647 109.661 48.7131 108.556 48.7131C107.706 48.7131 106.771 49.1799 106.771 49.9437C106.771 50.5801 107.068 51.1318 108.344 51.5137L109.704 51.8956C112.041 52.5745 113.402 53.7202 113.402 55.8843C113.402 58.4302 111.361 60.0002 108.641 60.0002Z" fill="#065C9E"/>
<path d="M122.623 46.3369C126.066 46.3369 128.957 48.6283 128.957 52.8716C128.957 53.1686 128.957 53.3808 128.914 53.8051H118.543C118.671 55.9692 120.413 57.3694 122.581 57.3694C124.409 57.3694 125.684 56.5208 126.364 55.3751L128.574 56.9451C127.384 58.8122 125.344 60.0003 122.581 60.0003C118.586 60.0003 115.695 57.1573 115.695 53.1686C115.78 49.3072 118.628 46.3369 122.623 46.3369ZM118.756 51.6835H126.066C125.769 49.774 124.239 48.7556 122.538 48.7556C120.838 48.7556 119.138 49.7315 118.756 51.6835Z" fill="#065C9E"/>
<path d="M7.14069 18.3311C5.22801 18.3311 3.65535 19.307 2.89028 20.3678V18.5857H0V35.8982V37.2137V38.7837C1.61516 38.7837 2.89028 37.5107 2.89028 35.8982V29.9576C3.61285 31.0185 5.22801 31.9944 7.14069 31.9944C10.7535 31.9944 13.4738 28.8968 13.4738 25.1627C13.4738 21.4286 10.7535 18.3311 7.14069 18.3311ZM6.63064 29.3636C4.29292 29.3636 2.67776 27.539 2.67776 25.1627C2.67776 22.7865 4.29292 20.9619 6.63064 20.9619C8.96837 20.9619 10.541 22.7865 10.541 25.1627C10.541 27.539 8.92587 29.3636 6.63064 29.3636Z" fill="#065C9E"/>
<path d="M45.1813 10.2261C43.5661 10.2261 42.291 11.4991 42.291 13.1115V20.3251C41.5685 19.2643 39.9533 18.2883 38.0831 18.2883C34.4703 18.2883 31.75 21.3859 31.75 25.12C31.75 28.8541 34.4278 31.9941 38.0406 31.9941C39.9533 31.9941 41.5259 31.0182 42.2485 29.9573V31.7395H45.1388V13.1115V10.2261H45.1813ZM38.5932 29.3633C36.2554 29.3633 34.6828 27.5387 34.6828 25.1624C34.6828 22.7862 36.2554 20.9616 38.5932 20.9616C40.9309 20.9616 42.5035 22.7862 42.5035 25.1624C42.5035 27.5387 40.9309 29.3633 38.5932 29.3633Z" fill="#065C9E"/>
<path d="M81.3973 21.1317V18.5433H77.6145V15.0213V13.5786C75.9993 13.5786 74.7242 14.894 74.7242 16.464V18.5433H72.0039V21.1317H74.7242V27.4541C74.7242 30.4244 76.6794 31.8247 79.2296 31.8247C80.1222 31.8247 80.8023 31.7399 81.3973 31.5277V28.9393C80.9723 29.109 80.3772 29.1939 79.8247 29.1939C78.337 29.1939 77.6145 28.5998 77.6145 26.945V21.1317H81.3973Z" fill="#065C9E"/>
<path d="M51.0904 10.1416C53.1306 10.1416 54.7883 11.7965 54.7883 13.8333C54.7883 15.87 53.1306 17.5249 51.0904 17.5249C49.0502 17.5249 47.3926 15.87 47.3926 13.8333C47.3926 11.7965 49.0502 10.1416 51.0904 10.1416Z" fill="#065C9E"/>
<path d="M97.0805 17.3975C101.893 17.3975 105.794 13.5029 105.794 8.69873C105.794 3.89455 101.893 0 97.0805 0C92.2683 0 88.3672 3.89455 88.3672 8.69873C88.3672 13.5029 92.2683 17.3975 97.0805 17.3975Z" fill="#065C9E"/>
<path d="M97.078 18.6703C96.5679 18.6703 96.1004 18.6278 95.6328 18.543V31.6971H98.5231V18.543C98.0131 18.6278 97.5455 18.6703 97.078 18.6703Z" fill="#065C9E"/>
<path d="M86.1137 45.4879C89.4471 45.4879 92.1493 42.7902 92.1493 39.4625C92.1493 36.1347 89.4471 33.437 86.1137 33.437C82.7804 33.437 80.0781 36.1347 80.0781 39.4625C80.0781 42.7902 82.7804 45.4879 86.1137 45.4879Z" fill="#065C9E"/>
<path d="M86.1131 46.7186C85.6031 46.7186 85.1355 46.6762 84.668 46.5913V59.7455H87.5583V46.5913C87.0907 46.6762 86.5807 46.7186 86.1131 46.7186Z" fill="#065C9E"/>
<path d="M51.0897 18.7976C50.5796 18.7976 50.1121 18.7127 49.6445 18.5854V31.7396H52.5348V18.5854C52.0673 18.7127 51.5997 18.7976 51.0897 18.7976Z" fill="#065C9E"/>
</g>
<defs>
<clipPath id="clip0_8783_1549">
<rect width="129" height="60" fill="white"/>
</clipPath>
</defs>
</svg>
